<svg id="Layer_1" data-name="Layer 1" xmlns="http://www.w3.org/2000/svg" viewBox="0 0 300 300"><path d="M282.51,1.37h-265A12.5,12.5,0,0,0,6.39,8.13a12.63,12.63,0,0,0,1,13.14L104.47,158a.71.71,0,0,0,.1.14A27.79,27.79,0,0,1,110,174.64V286.15a12.41,12.41,0,0,0,12.4,12.48,12.82,12.82,0,0,0,4.89-1l54.56-20.81c4.89-1.49,8.13-6.1,8.13-11.66V174.64a27.76,27.76,0,0,1,5.45-16.46l.1-.14L292.62,21.27a12.63,12.63,0,0,0,1-13.14A12.5,12.5,0,0,0,282.51,1.37ZM183.27,149.24a43,43,0,0,0-8.37,25.4v88.71l-49.8,19V174.64a43,43,0,0,0-8.37-25.4L22.47,16.46H277.53Z" style="fill:#a5adc6"/></svg>